<?xml version="1.0" encoding="UTF-8"?>
<svg version="1.1" xmlns="http://www.w3.org/2000/svg" width="1024" height="1024">
<path d="M0 0 C0.92802429 0.00060425 1.85604858 0.0012085 2.81219482 0.00183105 C15.77725921 0.02469762 28.61073557 0.25880105 41.49511719 1.83251953 C44.89202407 2.24233555 48.29308311 2.60192169 51.6953125 2.96484375 C106.58257157 9.06796657 161.3339891 24.07715466 210.28271484 50.04589844 C211.87040703 50.8870551 213.46255996 51.71980514 215.05712891 52.54785156 C249.93848785 70.68022096 281.92467888 93.50763931 310.9609375 119.95703125 C312.35762088 121.21492748 313.76105187 122.46570131 315.1862793 123.69116211 C320.52089974 128.28414824 325.53607366 133.13581195 330.5 138.125 C331.26376953 138.88490234 332.02753906 139.64480469 332.81445312 140.42773438 C337.56316212 145.18456776 342.06800487 150.08203336 346.4375 155.1875 C347.37531564 156.25867693 348.31406763 157.32903506 349.25390625 158.3984375 C362.43675554 173.53148279 374.38987567 189.43693044 385.4375 206.1875 C386.0046875 207.04327637 386.571875 207.89905273 387.15625 208.78076172 C395.86959648 221.98935866 403.72923163 235.5349374 411.06103516 249.55615234 C412.22990092 251.79063889 413.41468677 254.01545029 414.60546875 256.23828125 C431.59500102 288.478902 443.67989998 324.66613918 451.4375 360.1875 C451.6648584 361.20908203 451.8922168 362.23066406 452.12646484 363.28320312 C455.24235974 377.51816326 457.31779922 391.8709503 459.1875 406.3125 C459.2945929 407.13344147 459.40168579 407.95438293 459.51202393 408.80020142 C461.79408872 426.46417973 462.6465553 443.94572421 462.625 461.75 C462.62409363 463.14203644 462.62409363 463.14203644 462.62316895 464.56219482 C462.60030238 477.52725921 462.36619895 490.36073557 460.79248047 503.24511719 C460.38266445 506.64202407 460.02307831 510.04308311 459.66015625 513.4453125 C453.55703343 568.33257157 438.54784534 623.0839891 412.57910156 672.03271484 C411.7379449 673.62040703 410.90519486 675.21255996 410.07714844 676.80712891 C391.94477904 711.68848785 369.11736069 743.67467888 342.66796875 772.7109375 C341.41007252 774.10762088 340.15929869 775.51105187 338.93383789 776.9362793 C334.34085176 782.27089974 329.48918805 787.28607366 324.5 792.25 C323.36014648 793.3956543 323.36014648 793.3956543 322.19726562 794.56445312 C317.44043224 799.31316212 312.54296664 803.81800487 307.4375 808.1875 C306.36632307 809.12531564 305.29596494 810.06406763 304.2265625 811.00390625 C289.09351721 824.18675554 273.18806956 836.13987567 256.4375 847.1875 C255.58172363 847.7546875 254.72594727 848.321875 253.84423828 848.90625 C240.63564134 857.61959648 227.0900626 865.47923163 213.06884766 872.81103516 C210.83436111 873.97990092 208.60954971 875.16468677 206.38671875 876.35546875 C174.146098 893.34500102 137.95886082 905.42989998 102.4375 913.1875 C101.41591797 913.4148584 100.39433594 913.6422168 99.34179688 913.87646484 C85.10683674 916.99235974 70.7540497 919.06779922 56.3125 920.9375 C55.49155853 921.0445929 54.67061707 921.15168579 53.82479858 921.26202393 C36.16082027 923.54408872 18.67927579 924.3965553 0.875 924.375 C-0.51703644 924.37409363 -0.51703644 924.37409363 -1.93719482 924.37316895 C-14.90225921 924.35030238 -27.73573557 924.11619895 -40.62011719 922.54248047 C-44.01702407 922.13266445 -47.41808311 921.77307831 -50.8203125 921.41015625 C-105.70757157 915.30703343 -160.4589891 900.29784534 -209.40771484 874.32910156 C-210.99540703 873.4879449 -212.58755996 872.65519486 -214.18212891 871.82714844 C-249.06348785 853.69477904 -281.04967888 830.86736069 -310.0859375 804.41796875 C-311.48262088 803.16007252 -312.88605187 801.90929869 -314.3112793 800.68383789 C-319.64589974 796.09085176 -324.66107366 791.23918805 -329.625 786.25 C-330.7706543 785.11014648 -330.7706543 785.11014648 -331.93945312 783.94726562 C-336.68816212 779.19043224 -341.19300487 774.29296664 -345.5625 769.1875 C-346.50031564 768.11632307 -347.43906763 767.04596494 -348.37890625 765.9765625 C-361.56175554 750.84351721 -373.51487567 734.93806956 -384.5625 718.1875 C-385.1296875 717.33172363 -385.696875 716.47594727 -386.28125 715.59423828 C-394.99459648 702.38564134 -402.85423163 688.8400626 -410.18603516 674.81884766 C-411.35490092 672.58436111 -412.53968677 670.35954971 -413.73046875 668.13671875 C-430.72000102 635.896098 -442.80489998 599.70886082 -450.5625 564.1875 C-450.7898584 563.16591797 -451.0172168 562.14433594 -451.25146484 561.09179688 C-454.36735974 546.85683674 -456.44279922 532.5040497 -458.3125 518.0625 C-458.4195929 517.24155853 -458.52668579 516.42061707 -458.63702393 515.57479858 C-460.91908872 497.91082027 -461.7715553 480.42927579 -461.75 462.625 C-461.74939575 461.69697571 -461.7487915 460.76895142 -461.74816895 459.81280518 C-461.72530238 446.84774079 -461.49119895 434.01426443 -459.91748047 421.12988281 C-459.50766445 417.73297593 -459.14807831 414.33191689 -458.78515625 410.9296875 C-452.68203343 356.04242843 -437.67284534 301.2910109 -411.70410156 252.34228516 C-410.8629449 250.75459297 -410.03019486 249.16244004 -409.20214844 247.56787109 C-391.06977904 212.68651215 -368.24236069 180.70032112 -341.79296875 151.6640625 C-340.53507252 150.26737912 -339.28429869 148.86394813 -338.05883789 147.4387207 C-333.46585176 142.10410026 -328.61418805 137.08892634 -323.625 132.125 C-322.86509766 131.36123047 -322.10519531 130.59746094 -321.32226562 129.81054688 C-316.56543224 125.06183788 -311.66796664 120.55699513 -306.5625 116.1875 C-305.49132307 115.24968436 -304.42096494 114.31093237 -303.3515625 113.37109375 C-288.21851721 100.18824446 -272.31306956 88.23512433 -255.5625 77.1875 C-254.70672363 76.6203125 -253.85094727 76.053125 -252.96923828 75.46875 C-239.76064134 66.75540352 -226.2150626 58.89576837 -212.19384766 51.56396484 C-209.95936111 50.39509908 -207.73454971 49.21031323 -205.51171875 48.01953125 C-173.271098 31.02999898 -137.08386082 18.94510002 -101.5625 11.1875 C-100.54091797 10.9601416 -99.51933594 10.7327832 -98.46679688 10.49853516 C-84.23183674 7.38264026 -69.8790497 5.30720078 -55.4375 3.4375 C-54.61655853 3.3304071 -53.79561707 3.22331421 -52.94979858 3.11297607 C-35.28582027 0.83091128 -17.80427579 -0.0215553 0 0 Z " fill="#037244" transform="translate(511.5625,49.8125)"/>
<path d="M0 0 C4.08527237 0.72904378 7.96926035 2.02306801 11.890625 3.36328125 C20.43709642 5.9479757 28.57556964 6.82101244 37.4921875 6.80859375 C38.58112305 6.80843262 39.67005859 6.80827148 40.79199219 6.80810547 C50.94005513 6.66603857 60.68250892 5.24491816 70.1015625 1.3203125 C72.52720015 0.39645387 74.34527966 0.13474379 76.9296875 0.12109375 C78.02796875 0.09595703 78.02796875 0.09595703 79.1484375 0.0703125 C82.45233271 0.5964465 83.88015167 1.17555074 86.4296875 3.43359375 C87.9165436 6.89098678 88.80009707 10.48366664 89.7421875 14.12109375 C94.66445301 31.46692565 102.26491038 44.3878203 113.4296875 58.43359375 C127.56992208 76.33060665 139.3238426 93.6514242 137.4296875 117.43359375 C135.55667546 130.0095317 130.68125442 141.77117745 124.46875 152.7890625 C124.08348145 153.47254761 123.69821289 154.15603271 123.30126953 154.86022949 C117.98383389 164.13371544 111.88475875 172.89726032 105.86816406 181.72460938 C89.09950554 206.37759007 73.86357779 230.73974523 78.81640625 261.86376953 C80.87712239 271.01128849 85.06573128 279.5462948 89.19091797 287.91601562 C129.00660873 368.83430556 129.00660873 368.83430556 120.4296875 406.43359375 C93.12958879 410.41431492 66.47931899 413.65452323 38.8671875 413.62109375 C37.93916321 413.6204895 37.01113892 413.61988525 36.05499268 413.6192627 C22.07160645 413.59460011 8.31885391 413.14153202 -5.5703125 411.43359375 C-7.58995319 411.19988316 -9.60960055 410.9662287 -11.62936401 410.73358154 C-15.27759683 410.31060542 -18.92407338 409.87338338 -22.5703125 409.43359375 C-23.26884338 409.3500061 -23.96737427 409.26641846 -24.68707275 409.18029785 C-26.69061775 408.93790725 -28.69299171 408.68589757 -30.6953125 408.43359375 C-31.85289062 408.28921875 -33.01046875 408.14484375 -34.203125 407.99609375 C-37.78936799 407.39699979 -41.09639276 406.4943326 -44.5703125 405.43359375 C-44.9888511 374.88671473 -44.9888511 374.88671473 -42.5703125 361.43359375 C-42.35375 360.17869141 -42.35375 360.17869141 -42.1328125 358.8984375 C-39.06691354 343.377324 -31.90047058 329.00608759 -25.08959961 314.86376953 C-21.35508686 307.10262436 -17.68950205 299.31167836 -14.0703125 291.49609375 C-13.5662085 290.41312012 -13.06210449 289.33014648 -12.54272461 288.21435547 C-9.9875852 282.68161077 -7.65105576 277.16035239 -5.5703125 271.43359375 C-5.18488281 270.58796875 -4.79945313 269.74234375 -4.40234375 268.87109375 C1.28626147 255.27075023 0.42405679 237.20522052 -4.8046875 223.57836914 C-11.30470437 207.88333865 -20.66488576 193.76417238 -30.1328125 179.74609375 C-63.99647704 129.4520908 -63.99647704 129.4520908 -60.17578125 100.4375 C-56.80328952 84.40184577 -47.37212566 72.03004319 -37.30126953 59.58251953 C-25.54743709 44.99052614 -17.1070947 30.73793779 -12.5703125 12.43359375 C-10.69335821 5.22851117 -8.57415378 -0.53386241 0 0 Z " fill="#FEFEFE" transform="translate(473.5703125,560.56640625)"/>
<path d="M0 0 C0.66 0 1.32 0 2 0 C5.02257473 6.78179651 8.02302472 13.57306255 11 20.375 C11.42539062 21.33921875 11.85078125 22.3034375 12.2890625 23.296875 C14.7831509 29.00420611 17.02423655 34.7442335 19.11132812 40.61181641 C20.13302338 43.35748205 21.35851274 45.92317174 22.75 48.5 C25 52.6746988 25 52.6746988 25 56 C26.24571777 55.97607178 26.24571777 55.97607178 27.51660156 55.95166016 C38.02369053 55.84265371 48.43351822 56.41436932 58.91113281 57.171875 C61.78648767 57.37761075 64.66261769 57.56799635 67.5390625 57.7578125 C69.37506509 57.88709973 71.21100547 58.01727437 73.046875 58.1484375 C73.90303406 58.20373627 74.75919312 58.25903503 75.64129639 58.31600952 C79.49471746 58.6074188 81.72732764 58.81821843 85 61 C69.9889794 75.02012458 69.9889794 75.02012458 63 81 C61.88402381 81.95822762 60.76814817 82.91657236 59.65234375 83.875 C56.69096754 86.41695215 53.72673908 88.95554675 50.76123047 91.49267578 C47.83931262 93.9933579 44.91967973 96.49670547 42 99 C43.13356465 105.18307989 44.9470323 110.53053747 47.44140625 116.2890625 C49.82962094 121.87366499 51.91454032 127.58068081 54.05712891 133.26269531 C54.37987793 134.11702148 54.70262695 134.97134766 55.03515625 135.8515625 C55.35371582 136.69493164 55.67227539 137.53830078 56.00048828 138.40722656 C57.36783189 141.95417066 58.80997004 145.46949804 60.26342773 148.98193359 C61 151 61 151 61 153 C61.41507813 152.62230469 61.83015625 152.24460938 62.2578125 151.85546875 C90.01834893 127.05683056 127.69711223 106.33960538 166 107 C163.31624301 111.99333633 160.48035153 116.84156117 157.4375 121.625 C146.97285977 138.57338155 138.58624574 156.61062989 131 175 C130.62955566 175.86028809 130.25911133 176.72057617 129.87744141 177.60693359 C128.82787549 180.04462975 128.82787549 180.04462975 129 183 C129.70382812 182.443125 130.40765625 181.88625 131.1328125 181.3125 C153.56011133 163.97965286 185.01235098 149.65173725 214 151 C210.85191715 155.97065712 207.47627075 160.72397378 203.89575195 165.38891602 C188.7769619 185.13387622 175.46225654 207.08628573 165.44628906 229.86181641 C162.53779446 236.40345325 162.53779446 236.40345325 160 238 C154.42675675 238.89366874 150.65547523 236.62084078 145.875 234.125 C134.36699885 228.40202139 122.36636712 224.22853266 110.21435547 220.09423828 C107.47164554 219.16055866 104.73736831 218.20634622 102.00390625 217.24609375 C88.00982774 212.4503361 73.54762269 209.55935492 59 207 C57.17299561 206.67805664 57.17299561 206.67805664 55.30908203 206.34960938 C18.07353784 200.12474727 -21.84516297 200.3425305 -59 207 C-59.64573975 207.11408203 -60.29147949 207.22816406 -60.95678711 207.34570312 C-91.82464455 212.83871745 -123.41363489 222.1625065 -151.09057617 237.13061523 C-153.75553785 238.34400592 -156.11288085 238.13123269 -159 238 C-159.47308594 237.04222656 -159.94617188 236.08445312 -160.43359375 235.09765625 C-162.60240198 230.72164887 -164.79638593 226.35857085 -167 222 C-167.34208496 221.32163086 -167.68416992 220.64326172 -168.03662109 219.94433594 C-177.68287436 200.93265191 -188.89086008 182.95268641 -201.62695312 165.86523438 C-204.08649874 162.52403088 -206.40894582 159.0905486 -208.73046875 155.65234375 C-209.91643213 153.85978907 -209.91643213 153.85978907 -212 153 C-212 152.34 -212 151.68 -212 151 C-203.0136395 151.4265212 -194.70537075 152.78426649 -186 155 C-184.68290018 155.30601638 -183.36516269 155.60929824 -182.046875 155.91015625 C-161.56653492 160.65744921 -143.65575102 170.35641087 -127 183 C-127.98651719 177.33542082 -130.16264324 172.34478428 -132.375 167.0625 C-132.81763184 166.00506592 -133.26026367 164.94763184 -133.71630859 163.8581543 C-139.86505011 149.38070209 -146.65866158 135.18418013 -155.140625 121.91796875 C-158.25040267 117.03770842 -161.10975229 112.01277338 -164 107 C-127.57114352 107.8617579 -92.28099566 124.69658215 -65 148 C-63.00344035 149.67083334 -61.00169282 151.33531207 -59 153 C-58.59910156 151.8346875 -58.19820312 150.669375 -57.78515625 149.46875 C-54.38672158 139.64495945 -50.88291689 129.86465938 -47.25 120.125 C-46.87367432 119.10986328 -46.49734863 118.09472656 -46.10961914 117.04882812 C-44.62964967 113.10400434 -43.15794671 109.30820574 -41.234375 105.5546875 C-39.70996196 102.87261 -39.70996196 102.87261 -40 99 C-41.39854223 97.29809799 -41.39854223 97.29809799 -43.375 95.8125 C-46.59869014 93.15536349 -49.73267511 90.44858346 -52.8125 87.625 C-56.23229328 84.53363199 -59.71958524 81.57540968 -63.3125 78.6875 C-68.33565474 74.63309653 -73.06873889 70.32507427 -77.76098633 65.8972168 C-80.64427717 63.12595756 -80.64427717 63.12595756 -84 61 C-84 60.34 -84 59.68 -84 59 C-76.75941153 58.56905314 -69.51858704 58.14225171 -62.27758789 57.71826172 C-59.81692031 57.5736973 -57.35630723 57.42820186 -54.89575195 57.28173828 C-51.34861118 57.07076127 -47.80128458 56.86318966 -44.25390625 56.65625 C-43.1629213 56.59062866 -42.07193634 56.52500732 -40.94789124 56.45739746 C-34.95260828 56.11128976 -29.00525241 55.93403842 -23 56 C-22.91532471 55.36803711 -22.83064941 54.73607422 -22.7434082 54.08496094 C-21.69066476 49.71633495 -19.89427018 45.75399395 -18.10546875 41.640625 C-17.71684158 40.73681091 -17.32821442 39.83299683 -16.92781067 38.90179443 C-15.6855584 36.01589111 -14.43657263 33.13295691 -13.1875 30.25 C-12.35829221 28.32570682 -11.52951164 26.40122949 -10.70117188 24.4765625 C-7.17705688 16.29823917 -3.63196319 8.13110323 0 0 Z " fill="#FCFDFD" transform="translate(511,80)"/>
<path d="M0 0 C12.09187692 9.37120461 22.26216816 20.68895553 26.46875 35.75390625 C26.46875 37.07390625 26.46875 38.39390625 26.46875 39.75390625 C22.02753874 39.18452019 18.08827707 38.01155895 13.91015625 36.47265625 C-0.36636858 32.26964734 -16.67282812 34.01557592 -29.9609375 40.40234375 C-36.06383196 43.81936779 -41.86996691 47.14573267 -44.89453125 53.71484375 C-49.20711227 69.22593762 -49.36598012 85.6268949 -44.40625 100.98828125 C-43.53125 103.75390625 -43.53125 103.75390625 -43.53125 106.75390625 C-40.56107306 106.12580452 -40.56107306 106.12580452 -37.53125 104.75390625 C-36.35096716 102.60292692 -36.35096716 102.60292692 -35.53125 99.75390625 C-34.74862308 98.19686178 -33.93309779 96.6561219 -33.09375 95.12890625 C-32.68253906 94.37351562 -32.27132812 93.618125 -31.84765625 92.83984375 C-30.54895202 90.78195633 -29.45253417 89.24877074 -27.53125 87.75390625 C-23.07548693 87.90755325 -19.58945892 88.68837569 -15.46875 90.31640625 C-7.33742372 93.15815004 2.12715667 93.07925614 10.09375 89.81640625 C10.82851563 89.45675781 11.56328125 89.09710938 12.3203125 88.7265625 C14.72388752 87.63839854 16.8515446 87.07891869 19.46875 86.75390625 C23.14015393 88.41477946 25.34006958 90.34801757 27.46875 93.75390625 C31.72319313 106.51723563 28.80056589 123.39549032 24.46875 135.75390625 C24.1284375 136.9140625 24.1284375 136.9140625 23.78125 138.09765625 C14.694833 168.53715321 -6.08618537 198.33155509 -34.03637695 214.12036133 C-47.39197603 221.12917838 -62.89715657 222.98017491 -77.4375 218.84765625 C-105.60091979 208.89089168 -126.04987135 184.58666189 -138.73095703 158.29589844 C-140.37688462 154.80203262 -141.95896255 151.28135539 -143.53125 147.75390625 C-143.94375 146.86058594 -144.35625 145.96726562 -144.78125 145.046875 C-150.085562 132.88425335 -151.89607127 120.74898875 -151.96875 107.56640625 C-151.97874023 106.49124756 -151.98873047 105.41608887 -151.99902344 104.30834961 C-151.93795614 98.77434396 -151.7982593 94.45071256 -148.53125 89.75390625 C-144.46645762 87.04404466 -141.31186457 87.0950395 -136.53125 87.75390625 C-134.46875 88.65234375 -134.46875 88.65234375 -132.40625 89.75390625 C-124.83034604 93.48869399 -115.176242 92.92226962 -107.28125 90.31640625 C-106.02444238 89.8122218 -104.77316017 89.29374558 -103.53125 88.75390625 C-99.41380899 87.38142591 -95.82839812 87.00275122 -91.53125 87.75390625 C-89.01226691 89.13191454 -86.82905625 90.66710789 -84.57421875 92.44140625 C-82.37506747 94.11424869 -82.37506747 94.11424869 -78.53125 93.75390625 C-76.5219767 87.06967037 -76.19693891 80.89914292 -76.21875 73.94140625 C-76.20263672 72.92498047 -76.18652344 71.90855469 -76.16992188 70.86132812 C-76.16517425 63.41231092 -76.38159398 54.69324941 -81.22265625 48.63842773 C-92.22153856 37.94865831 -107.35799472 34.30412654 -122.17626953 34.31884766 C-129.19237076 34.50095767 -135.60283773 35.89342282 -142.30859375 37.87890625 C-145.53125 38.75390625 -145.53125 38.75390625 -149.53125 38.75390625 C-147.48307521 26.26004004 -141.21380258 17.69816697 -132.53125 8.75390625 C-131.98984375 8.13902344 -131.4484375 7.52414062 -130.890625 6.890625 C-98.77659143 -28.3861543 -36.38366535 -26.66001324 0 0 Z " fill="#FCFDFD" transform="translate(573.53125,321.24609375)"/>
<path d="M0 0 C4.31505391 0.31253895 7.14368824 3.34689944 10.25 6.0625 C10.82919189 6.56346191 11.40838379 7.06442383 12.00512695 7.58056641 C33.76146203 26.55167752 48.85431069 51.71817857 55 80 C55.26707764 81.18227173 55.26707764 81.18227173 55.53955078 82.38842773 C57.13427515 90.0924888 57.29907905 97.58894201 57.25 105.4375 C57.26160156 107.28698242 57.26160156 107.28698242 57.2734375 109.17382812 C57.25690614 116.99729337 56.68139274 124.35837146 55 132 C54.85236206 132.67346466 54.70472412 133.34692932 54.5526123 134.040802 C51.6012933 147.13416595 46.91479564 159.12586048 41.5 171.375 C40.00583587 174.79749132 38.51822907 178.22281919 37.03125 181.6484375 C36.67600754 182.46548157 36.32076508 183.28252563 35.95475769 184.12432861 C25.96334646 207.18307786 16.89176506 234.13417229 26 259 C26.39058594 260.09054687 26.78117188 261.18109375 27.18359375 262.3046875 C32.49486708 275.81608539 40.93233737 286.9004992 50.1027832 298.01904297 C67.36920683 318.96236358 81.10308045 339.08175543 79.27490234 367.36474609 C78.06140465 378.99751173 73.82750539 389.93648453 68 400 C67.5992627 400.69754395 67.19852539 401.39508789 66.78564453 402.11376953 C61.13718432 411.89444873 55.13726319 421.3937655 48.8125 430.75 C34.47229929 451.99278915 20.57526639 474.38338308 24 501 C25.52033812 507.95451061 28.2243973 514.46795224 31 521 C31.3211377 521.78246094 31.64227539 522.56492187 31.97314453 523.37109375 C36.47002338 534.27426749 41.87938604 544.64287656 47.5 555 C59.24177452 576.6439427 71.29585801 599.20823595 71.0625 624.375 C71.05798828 625.30183594 71.05347656 626.22867188 71.04882812 627.18359375 C71.03711574 629.45579709 71.02071372 631.72786388 71 634 C71.66 634.33 72.32 634.66 73 635 C69.19786104 636.25249647 65.39327504 637.49724324 61.58642578 638.73535156 C59.66700705 639.36130091 57.74949463 639.99308622 55.83203125 640.625 C48.93824153 642.86277467 42.1576498 644.82411531 35 646 C35.02094727 645.33693848 35.04189453 644.67387695 35.06347656 643.99072266 C35.97278586 610.6743207 24.96675554 585.47951263 10.10467529 556.18344116 C4.09889217 544.3408285 -1.69698375 532.58844417 -6 520 C-6.44472656 518.78699219 -6.88945313 517.57398438 -7.34765625 516.32421875 C-13.84152559 496.18221725 -10.66935972 475.7114289 -1.34570312 457.20507812 C-0.25794096 455.12075675 0.86579603 453.05946445 2 451 C2.54849609 449.99702881 3.09699219 448.99405762 3.66210938 447.96069336 C9.36520341 437.74119649 15.83446272 428.11679101 22.43652344 418.46166992 C30.4915902 406.65811049 38.71332908 394.59742789 42.9375 380.8125 C43.31777344 379.60207031 43.69804688 378.39164063 44.08984375 377.14453125 C48.90940811 360.49324664 46.66965047 343.40163006 38.5625 328.25 C33.53325787 319.59771031 27.20034299 311.82728854 21 304 C14.38214607 295.64143628 8.36937659 287.21469433 3 278 C2.32066406 276.91460938 1.64132812 275.82921875 0.94140625 274.7109375 C-1.43555074 270.53112882 -2.5468197 266.14341241 -3.6875 261.5 C-3.89955078 260.68402344 -4.11160156 259.86804688 -4.33007812 259.02734375 C-11.86425807 229.41350079 -1.78215125 202.11273472 10.36914062 175.31738281 C15.63770473 163.69555023 20.44897419 151.92008546 25 140 C25.42732422 138.8874585 25.42732422 138.8874585 25.86328125 137.75244141 C37.45497094 107.10133885 35.67876422 69.99288339 22.45703125 40.07421875 C16.77559535 28.08684595 10.09869208 17.43717195 2.20166016 6.77661133 C0.94524116 4.91904102 -0.04090065 3.02479622 -1 1 C-0.67 0.67 -0.34 0.34 0 0 Z " fill="#FBFCFC" transform="translate(593,313)"/>
<path d="M0 0 C0.598125 0.20625 1.19625 0.4125 1.8125 0.625 C0.42111514 3.75751673 -1.42188888 6.39646161 -3.4621582 9.14086914 C-12.32200235 21.0710062 -19.37313834 33.525798 -24.1875 47.625 C-24.47109375 48.41132813 -24.7546875 49.19765625 -25.046875 50.0078125 C-40.08491786 92.82019983 -29.26344508 131.12223847 -11.19140625 170.92578125 C-4.37675287 185.99356625 2.45524749 201.36574804 5.8125 217.625 C6.03421875 218.66785156 6.2559375 219.71070313 6.484375 220.78515625 C10.62581531 243.36719905 6.82049754 265.50788933 -6.1875 284.625 C-6.56390625 285.18558105 -6.9403125 285.74616211 -7.328125 286.32373047 C-11.95373684 293.17156332 -16.97591234 299.65393692 -22.1875 306.0625 C-38.18513407 325.78958091 -47.34040639 343.59685611 -45.1875 369.625 C-42.33966145 387.72134434 -31.37748137 404.60264428 -21.1875 419.375 C-19.28712787 422.15837985 -17.39295946 424.94594986 -15.5 427.734375 C-15.04365173 428.40530182 -14.58730347 429.07622864 -14.11712646 429.76748657 C-8.22961209 438.45926876 -2.55274032 447.30650827 2.0625 456.75 C2.39258057 457.41813721 2.72266113 458.08627441 3.06274414 458.7746582 C13.30820785 479.86557943 13.17453311 501.10769172 5.6328125 523.05859375 C0.00050145 538.00588077 -7.55683798 552.26064267 -14.609375 566.5703125 C-27.86268195 593.57404401 -34.88813242 615.35408637 -34.1875 645.625 C-42.10898184 644.27435322 -49.61877153 642.05278413 -57.25 639.5625 C-58.95833008 639.01625977 -58.95833008 639.01625977 -60.70117188 638.45898438 C-69.05009232 635.76240768 -69.05009232 635.76240768 -70.1875 634.625 C-71.157548 623.48267596 -70.76345816 612.24368492 -67.1875 601.625 C-66.80185345 600.32114739 -66.41927201 599.01638593 -66.0390625 597.7109375 C-60.90443146 580.665741 -52.6679486 564.95480092 -44.0625 549.4375 C-38.50277821 539.40357692 -33.54407614 529.23801254 -29.1875 518.625 C-28.86990723 517.86767578 -28.55231445 517.11035156 -28.22509766 516.33007812 C-22.01939838 501.21085728 -20.0100769 484.17333145 -26.31005859 468.63867188 C-33.95137189 451.10234688 -44.37098641 435.41161736 -54.92759705 419.55543518 C-63.18671309 407.12413505 -70.16905174 394.71187231 -75.1875 380.625 C-75.72890625 379.12453125 -75.72890625 379.12453125 -76.28125 377.59375 C-81.25282689 361.20595951 -78.74482869 344.25303648 -71.49609375 329.0859375 C-65.15582723 317.3584299 -56.80260496 306.91491347 -48.26855469 296.72216797 C-30.34547797 275.21554085 -20.55215176 254.00407346 -22.1875 225.625 C-22.76046602 220.52973488 -23.89598036 215.58276895 -25.1875 210.625 C-25.41566406 209.72652344 -25.64382813 208.82804688 -25.87890625 207.90234375 C-27.08321763 203.55994101 -28.64117939 199.42567785 -30.38671875 195.2734375 C-30.82983398 194.21777588 -31.27294922 193.16211426 -31.72949219 192.07446289 C-33.25243876 188.47136306 -34.77993346 184.87020899 -36.30859375 181.26953125 C-53.00996092 141.91317037 -65.16318676 102.72878956 -48.81518555 60.63842773 C-43.58852841 48.02361837 -18.04057547 -3.09267008 0 0 Z " fill="#FBFCFC" transform="translate(430.1875,313.375)"/>
<path d="M0 0 C1.7781729 1.7781729 1.19345656 4.39951164 1.24609375 6.80859375 C1.27719238 8.02135986 1.30829102 9.23412598 1.34033203 10.48364258 C1.37239746 11.78841553 1.40446289 13.09318848 1.4375 14.4375 C2.79771282 58.90646375 17.95890517 98.81449608 44 135 C44.4017041 135.55929199 44.8034082 136.11858398 45.21728516 136.69482422 C47.7437703 140.18367737 50.35653589 143.59931718 53 147 C53.89456507 148.16403651 54.78909466 149.32810029 55.68359375 150.4921875 C60.50530005 156.73090562 65.45814371 162.74155026 70.796875 168.55078125 C75.81036127 174.12428461 80.54252651 179.97259874 85 186 C68.46562197 192.78751151 49.25258901 186.66496103 33.70581055 180.24023438 C25.39298187 176.74261425 17.1559208 173.08934236 8.96337891 169.31958008 C-0.10638127 165.15144549 -9.21277934 161.52453586 -18.78393555 158.66357422 C-20.35013788 158.19459351 -21.90840912 157.69872945 -23.46020508 157.18408203 C-31.19428638 154.78348232 -38.50342049 154.54995425 -46.5625 154.625 C-47.81224609 154.61339844 -49.06199219 154.60179687 -50.34960938 154.58984375 C-56.94201228 154.61062905 -62.62772514 155.05042509 -68.83178711 157.35693359 C-71.39071763 158.11588225 -73.34592935 158.31485284 -76 158 C-77.95772459 155.62450552 -79.52016593 153.41073282 -81.125 150.8125 C-85.78108012 143.65522638 -90.81459726 137.2357263 -96.44580078 130.82519531 C-98.40217247 128.5277032 -100.27093026 126.16472031 -102.15625 123.80859375 C-107.05436927 117.80475942 -112.37674394 112.32724555 -117.875 106.875 C-118.79152344 105.95074219 -119.70804688 105.02648437 -120.65234375 104.07421875 C-126.79262799 97.95120675 -133.22157691 92.40042939 -140 87 C-141.10860023 86.07691331 -142.21367347 85.14954357 -143.3125 84.21484375 C-149.02901992 79.37075783 -154.84484212 74.84705798 -161.015625 70.59375 C-161.67046875 70.0678125 -162.3253125 69.541875 -163 69 C-163 68.34 -163 67.68 -163 67 C-160.73232844 66.1982052 -158.46144196 65.40866248 -156.1875 64.625 C-155.56423828 64.40328125 -154.94097656 64.1815625 -154.29882812 63.953125 C-143.6097892 60.30058909 -133.12003781 59.61194993 -121.875 59.625 C-121.19223999 59.62454681 -120.50947998 59.62409363 -119.80603027 59.62362671 C-108.98507287 59.64469827 -99.30664824 60.75597947 -89 64 C-87.14609227 64.41781726 -85.29194686 64.83458218 -83.4375 65.25 C-76.53852789 67.15934855 -70.29200456 70.65659148 -63.98291016 73.96826172 C-60.67668823 75.68853922 -57.33716532 77.34069756 -54 79 C-53.8040625 77.92105469 -53.608125 76.84210938 -53.40625 75.73046875 C-49.02673949 53.18183912 -39.32919873 32.38978945 -23 16 C-22.2059375 15.19433594 -21.411875 14.38867188 -20.59375 13.55859375 C-17.88844489 10.88995693 -15.12111672 8.30955794 -12.3125 5.75 C-11.35988281 4.87859375 -10.40726563 4.0071875 -9.42578125 3.109375 C-6.06926349 0.1906639 -4.38994602 -0.22512544 0 0 Z " fill="#FCFDFD" transform="translate(874,276)"/>
<path d="M0 0 C3.53981662 0.37314306 4.92628162 1.61862521 7.6171875 3.9140625 C8.48988281 4.65269531 9.36257812 5.39132812 10.26171875 6.15234375 C11.48955078 7.21001953 11.48955078 7.21001953 12.7421875 8.2890625 C13.36480469 8.77761719 13.98742187 9.26617187 14.62890625 9.76953125 C35.07638839 26.02265808 46.32739803 52.5059876 51.7421875 77.2890625 C51.7421875 77.9490625 51.7421875 78.6090625 51.7421875 79.2890625 C52.2997876 78.98202393 52.8573877 78.67498535 53.43188477 78.35864258 C64.5823725 72.25937733 75.36376171 66.45719092 87.7421875 63.2890625 C88.95648438 62.97324219 90.17078125 62.65742188 91.421875 62.33203125 C110.89526158 57.85592688 132.66180645 58.49012316 151.7421875 64.2890625 C152.76054687 64.59714844 153.77890625 64.90523438 154.828125 65.22265625 C156.81611162 65.86187041 158.78395667 66.56379182 160.7421875 67.2890625 C159.41784965 71.26207605 156.88593127 72.49405253 153.5546875 74.7265625 C145.82022298 80.08172806 138.76141825 86.03788711 131.7421875 92.2890625 C130.78054688 93.13855469 129.81890625 93.98804688 128.828125 94.86328125 C115.96544652 106.43260501 103.27126733 118.53274758 92.7421875 132.2890625 C91.58757847 133.75259817 90.4311629 135.21470953 89.2734375 136.67578125 C88.01232609 138.27549422 86.7519121 139.87575723 85.4921875 141.4765625 C84.90083008 142.22550781 84.30947266 142.97445312 83.70019531 143.74609375 C80.05661488 148.41978559 76.77144291 153.19511219 73.7421875 158.2890625 C69.12345596 157.84208848 64.68725326 157.28110826 60.15625 156.28125 C27.49446417 149.67637823 -1.75737063 164.56254692 -30.57080078 177.87207031 C-37.98072452 181.25489107 -45.42030637 184.05509401 -53.2578125 186.2890625 C-54.48242188 186.65644531 -55.70703125 187.02382813 -56.96875 187.40234375 C-62.11711307 188.66319256 -67.2362703 188.5435139 -72.5078125 188.4765625 C-73.4875 188.47591797 -74.4671875 188.47527344 -75.4765625 188.47460938 C-83.32578341 188.42635597 -83.32578341 188.42635597 -87.2578125 187.2890625 C-85.90672284 184.32580306 -84.37074602 182.08121085 -82.1953125 179.6640625 C-81.57011719 178.9628125 -80.94492188 178.2615625 -80.30078125 177.5390625 C-78.9340851 176.03386751 -77.56163044 174.53388196 -76.18359375 173.0390625 C-70.31120742 166.6289891 -64.92570006 159.93123831 -59.62207031 153.05175781 C-58.32054187 151.37011226 -57.00633585 149.69933876 -55.6875 148.03125 C-49.42481989 140.07044357 -43.72122837 131.8160134 -38.2578125 123.2890625 C-37.88833496 122.72058594 -37.51885742 122.15210938 -37.13818359 121.56640625 C-21.44897416 97.27525487 -9.15134582 69.07339815 -5.2578125 40.2890625 C-5.08958984 39.22510254 -4.92136719 38.16114258 -4.74804688 37.06494141 C-4.25027758 33.23102707 -4.06677132 29.50472955 -3.9765625 25.640625 C-3.93882065 24.20963493 -3.9010597 22.77864536 -3.86328125 21.34765625 C-3.80937529 19.11575177 -3.75711394 16.88381561 -3.70556641 14.65185547 C-3.65403343 12.48132437 -3.59678001 10.31099902 -3.5390625 8.140625 C-3.50876953 6.84979004 -3.47847656 5.55895508 -3.44726562 4.22900391 C-3.20115418 0.40983635 -3.20115418 0.40983635 0 0 Z " fill="#FCFDFD" transform="translate(152.2578125,275.7109375)"/>
<path d="M0 0 C3.92883077 1.6221664 6.75953756 4.31672505 9.8125 7.1875 C10.3480249 7.68797852 10.8835498 8.18845703 11.43530273 8.70410156 C12.49352512 9.69611491 13.54966798 10.69035217 14.60351562 11.68701172 C15.70643445 12.72398679 16.82676838 13.74243801 17.953125 14.75390625 C35.94573581 31.48004688 48.33337218 57.44151951 54 81 C54.2990625 82.13695312 54.598125 83.27390625 54.90625 84.4453125 C58.96958281 102.16595838 58.51824282 122.20888576 55 140 C54.87109375 140.67579102 54.7421875 141.35158203 54.609375 142.04785156 C52.75166139 151.64173828 50.17775665 160.87314374 47.15258789 170.15942383 C43.67322956 180.9364046 41.49551051 191.65988807 41 203 C40.92394531 204.20785156 40.84789062 205.41570312 40.76953125 206.66015625 C39.91837108 229.27341151 57.16356628 246.7069927 70.52734375 263.421875 C100.3377926 300.85155532 100.3377926 300.85155532 99.88134766 321.02734375 C99.86648431 326.23180245 99.90939377 330.46284634 102.984375 334.796875 C105.85945094 337.195607 108.77528526 339.09670503 112 341 C113.1939892 341.77075293 114.38532917 342.54562269 115.57421875 343.32421875 C134.4258516 355.40885376 154.07140647 360.27540521 176 363 C174.79826032 369.4982331 173.30232379 375.80517083 171.375 382.125 C171.14554688 382.89070313 170.91609375 383.65640625 170.6796875 384.4453125 C170.12385188 386.29809792 169.56252924 388.14923586 169 390 C170.03640625 389.96777344 171.0728125 389.93554688 172.140625 389.90234375 C186.68150194 390.27028092 197.93889375 399.68211381 207.99609375 409.2109375 C211.73345952 412.73233405 215.71105845 415.92043436 219.72265625 419.125 C221.60176953 420.67212586 223.32294169 422.24046341 225 424 C215.58997722 437.6332574 215.58997722 437.6332574 211 444 C210.67 443.34 210.34 442.68 210 442 C208.85325806 441.56228271 208.85325806 441.56228271 207.68334961 441.11572266 C204.67840872 439.86628404 203.26014916 438.52727487 201.06640625 436.1484375 C200.34179199 435.38273437 199.61717773 434.61703125 198.87060547 433.828125 C198.10893066 433.01859375 197.34725586 432.2090625 196.5625 431.375 C187.58472975 422.11798623 178.22170505 413.95877112 165 412 C163.68 412 162.36 412 161 412 C160.55269531 413.09699219 160.10539063 414.19398438 159.64453125 415.32421875 C159.03449708 416.77891561 158.42378386 418.23332784 157.8125 419.6875 C157.52052734 420.40873047 157.22855469 421.12996094 156.92773438 421.87304688 C154.73561785 427.03512772 152.22827129 431.38586436 147 434 C115.13270716 436.6375914 86.44601449 418.63007473 63 399 C62.33097656 398.44441406 61.66195312 397.88882812 60.97265625 397.31640625 C59.64568672 396.21424097 58.32224593 395.10782767 57 394 C57.70710688 390.46603812 59.1139582 387.54713142 60.73046875 384.3359375 C61.28379883 383.2217041 61.83712891 382.1074707 62.40722656 380.95947266 C62.84427917 380.08104706 62.84427917 380.08104706 63.29016113 379.18487549 C73.50137344 358.58950897 83.77678361 334.77265815 76.4375 311.4375 C75.6830752 309.60006817 74.8686482 307.78627064 74 306 C73.51402344 304.97261719 73.02804687 303.94523437 72.52734375 302.88671875 C66.71559977 291.41436361 58.87670589 281.37749403 51.03637695 271.24389648 C32.82366338 247.67263853 16.95733307 226.94628274 20.23583984 195.75634766 C22.34725142 179.35460361 27.47483329 163.4069893 32.54052734 147.72900391 C40.72706157 122.30766077 43.36024783 90.85100019 35 65 C34.6299585 63.83525146 34.6299585 63.83525146 34.25244141 62.64697266 C27.51276632 41.97284348 17.04056546 18.63584849 1.23828125 3.2890625 C0 2 0 2 0 0 Z " fill="#FAFCFB" transform="translate(672,344)"/>
<path d="M0 0 C-1.37138449 3.07634899 -3.16320155 5.66846886 -5.17260742 8.36254883 C-25.05280264 35.0805182 -37.47546521 65.37498726 -37.375 98.875 C-37.37345917 99.65200256 -37.37191833 100.42900513 -37.37033081 101.22955322 C-37.27796158 120.82844055 -33.33522909 137.57729953 -27.36743164 156.23657227 C-24.98001413 163.71007623 -22.80078635 171.17556334 -21 178.8125 C-20.8047876 179.63492188 -20.6095752 180.45734375 -20.40844727 181.3046875 C-16.95555968 196.44998479 -15.36106818 213.60902205 -22 228 C-22.67675781 229.58554687 -22.67675781 229.58554687 -23.3671875 231.203125 C-29.77133332 245.15842782 -39.61855642 257.00717199 -49.0625 269 C-65.92643799 290.46809049 -78.30337116 309.78615367 -76 338 C-73.57967371 354.76559351 -65.04994137 370.94732754 -56.8984375 385.58984375 C-55.75763518 388.65016998 -55.82276609 389.95248317 -57 393 C-73.98870457 412.67908661 -104.4461929 428.37962591 -130 432 C-145.10272813 433.07132653 -145.10272813 433.07132653 -150 429 C-151.41552366 426.6909093 -152.57354732 424.56605347 -153.6875 422.125 C-153.98205078 421.51269531 -154.27660156 420.90039062 -154.58007812 420.26953125 C-156.18705378 416.89668797 -157.65503082 413.48499403 -159 410 C-172.38843211 410.05924085 -181.82075339 416.84921617 -191 426 C-191.7108374 426.70842041 -191.7108374 426.70842041 -192.43603516 427.43115234 C-194.82301013 429.81343317 -197.19761877 432.20514341 -199.5546875 434.6171875 C-205.07868852 440 -205.07868852 440 -208 440 C-208.33 440.66 -208.66 441.32 -209 442 C-211.15208923 439.06703659 -213.2955695 436.12788836 -215.4375 433.1875 C-216.35499023 431.93743164 -216.35499023 431.93743164 -217.29101562 430.66210938 C-218.1659668 429.45844727 -218.1659668 429.45844727 -219.05859375 428.23046875 C-219.59798584 427.49207764 -220.13737793 426.75368652 -220.69311523 425.99291992 C-222 424 -222 424 -223 421 C-222.39414063 420.52691406 -221.78828125 420.05382812 -221.1640625 419.56640625 C-216.64961255 416.00346345 -212.24856267 412.37765641 -208 408.5 C-195.94631119 397.60675949 -183.89849144 387.71835848 -167 388 C-167.21205078 387.25838623 -167.42410156 386.51677246 -167.64257812 385.75268555 C-168.59911381 382.39876659 -169.5496245 379.04316946 -170.5 375.6875 C-170.83386719 374.52025391 -171.16773438 373.35300781 -171.51171875 372.15039062 C-171.82753906 371.03212891 -172.14335937 369.91386719 -172.46875 368.76171875 C-172.76201172 367.73006592 -173.05527344 366.69841309 -173.35742188 365.63549805 C-174 363 -174 363 -174 360 C-173.11441406 359.97421875 -172.22882813 359.9484375 -171.31640625 359.921875 C-148.71314694 358.88697031 -129.02740495 351.03680118 -110 339 C-108.91976562 338.3709375 -107.83953125 337.741875 -106.7265625 337.09375 C-103.49065242 334.93093092 -101.27212162 333.16947704 -99 330 C-98.15792907 325.67244989 -98.04866365 321.65914657 -98.06640625 317.26953125 C-98.10765102 296.61506893 -80.64870915 277.05291362 -68.46630859 261.67578125 C-53.94555946 243.69857777 -53.94555946 243.69857777 -42 224 C-41.64550781 223.34902344 -41.29101562 222.69804688 -40.92578125 222.02734375 C-37.85876714 215.49085666 -38.63911935 208.04241365 -39 201 C-39.04012207 200.0423877 -39.08024414 199.08477539 -39.12158203 198.09814453 C-39.59073251 189.82983651 -41.18991754 182.22284219 -43.375 174.25 C-43.67921875 173.09628906 -43.9834375 171.94257812 -44.296875 170.75390625 C-45.81008347 165.08260784 -47.45834071 159.50086736 -49.36132812 153.94921875 C-51.06261411 148.75691472 -51.98937102 143.35974023 -53 138 C-53.31324219 136.39125 -53.31324219 136.39125 -53.6328125 134.75 C-59.845795 96.94706421 -51.06226074 59.5998016 -28.9375 28.4375 C-8.09412811 0 -8.09412811 0 0 0 Z " fill="#FAFCFB" transform="translate(350,346)"/>
<path d="M0 0 C-1.59962208 3.64645034 -3.87047445 6.42000095 -6.375 9.5 C-30.75690725 40.48675224 -40.59018706 75.77151814 -38 115 C-36.23265589 129.32237309 -32.89028706 143.79709935 -27 157 C-25.21266217 161.59601156 -23.50379962 166.21866416 -21.80273438 170.84716797 C-21.04174816 172.88803672 -20.25134917 174.91487147 -19.453125 176.94140625 C-11.32708779 198.04410781 -5.5051553 222.96696256 -13 245 C-13.35191406 246.06734375 -13.70382812 247.1346875 -14.06640625 248.234375 C-19.62836312 263.87393689 -30.39236933 276.64327859 -40.5703125 289.53515625 C-50.08368953 301.59107822 -59.37660887 313.54630392 -65 328 C-65.36480469 328.87785156 -65.72960937 329.75570313 -66.10546875 330.66015625 C-71.37891498 350.34922407 -64.4584427 370.83882868 -55 388 C-51.69916985 393.63632318 -48.14806982 399.11156842 -44.57763672 404.57958984 C-15.99143007 448.43654632 -15.99143007 448.43654632 -14 470 C-13.9175 470.77988281 -13.835 471.55976562 -13.75 472.36328125 C-12.33012663 498.76405164 -30.63277354 526.35894957 -42.85205078 548.41625977 C-53.48175797 567.62166854 -62.03995417 587.77493894 -63 610 C-71.92096363 606.45448881 -80.46885393 602.37915338 -89 598 C-88.34 597.67 -87.68 597.34 -87 597 C-87.06960938 596.44957031 -87.13921875 595.89914062 -87.2109375 595.33203125 C-88.92480202 569.01196897 -70.47683011 541.66928968 -58.79296875 519.19921875 C-58.47030029 518.57699936 -58.14763184 517.95477997 -57.81518555 517.31370544 C-56.21801448 514.25414013 -54.57298523 511.23134277 -52.84912109 508.24194336 C-43.92872611 492.60239688 -39.99454659 473.60130464 -44.5 456 C-50.01751711 439.02597167 -60.17286244 423.67759355 -69.7109375 408.734375 C-75.06275066 400.34526576 -79.79673369 391.8601263 -84.08984375 382.88037109 C-85.06384164 380.86810399 -86.07357246 378.87602379 -87.0859375 376.8828125 C-94.48308595 362.05985837 -95.66292249 344.1224669 -91.15234375 328.1171875 C-84.90578589 311.21971912 -74.18961601 297.15557244 -63.08154297 283.16748047 C-46.73375085 262.57809904 -32.31495302 242.44456857 -35.21914673 214.92327881 C-36.79284356 202.61673647 -40.24457847 191.3251633 -44.4375 179.6875 C-45.58660813 176.44301622 -46.72857017 173.19602617 -47.87109375 169.94921875 C-48.14547272 169.17260391 -48.41985168 168.39598907 -48.70254517 167.59584045 C-59.59591053 136.65043946 -64.06128209 103.83400341 -54 72 C-53.77538086 71.27474121 -53.55076172 70.54948242 -53.31933594 69.80224609 C-47.60024492 51.87493533 -22.91488449 0 0 0 Z " fill="#FAFCFB" transform="translate(391,326)"/>
<path d="M0 0 C21.54536582 7.42676883 37.35428448 34.36704447 46.90234375 53.84033203 C50.89459746 62.26407934 53.82460724 70.94497827 56 80 C56.25297852 80.99684814 56.50595703 81.99369629 56.76660156 83.02075195 C58.85918595 91.8348018 59.47239539 100.14558411 59.375 109.1875 C59.37101196 109.86087402 59.36702393 110.53424805 59.36291504 111.22802734 C59.28574568 122.38526586 58.45349283 133.11041308 56 144 C55.75636719 145.15371094 55.51273438 146.30742187 55.26171875 147.49609375 C52.58232518 158.6835143 48.3693513 169.43776038 44.4375 180.23046875 C35.61590434 204.60784825 30.17033473 227.44473996 41.31640625 251.88671875 C46.77973837 262.54877717 54.35385421 272.0437579 61.875 281.3125 C71.68234755 293.41898856 80.95817211 306.06271015 88 320 C88.79083984 321.51787109 88.79083984 321.51787109 89.59765625 323.06640625 C95.83138116 337.21817729 95.45571143 355.79386854 90 370.125 C88.76004307 373.13196704 87.40737315 376.06825277 86 379 C85.68466309 379.68707031 85.36932617 380.37414062 85.04443359 381.08203125 C78.77562842 394.72149087 70.85768367 407.50098193 62.875 420.1875 C55.82880422 431.40901599 49.25063376 442.35135299 45 455 C44.75378906 455.66902344 44.50757813 456.33804687 44.25390625 457.02734375 C37.34702742 478.79592048 49.25840524 500.71045636 58.6875 519.5 C59.30729924 520.73982369 59.92709081 521.97965121 60.546875 523.21948242 C64.0973917 530.30576683 67.74773433 537.33074145 71.5 544.3125 C75.62356665 552.01483972 78.95688399 559.81088383 82 568 C82.31582031 568.77601563 82.63164063 569.55203125 82.95703125 570.3515625 C86.51219755 579.14315602 87.32185524 587.59467478 87 597 C87.66 597.33 88.32 597.66 89 598 C71.85106383 606.76595745 71.85106383 606.76595745 63 610 C62.85304688 608.52853516 62.85304688 608.52853516 62.703125 607.02734375 C60.46905357 586.24268618 53.46124344 568.10401493 43.75 549.75 C43.08589731 548.48058599 42.4224955 547.21080509 41.75976562 545.94067383 C38.88222399 540.43447683 35.97498512 534.94433015 33.046875 529.46484375 C20.68436534 506.30239778 9.50065623 482.41396482 16.5 455.5625 C22.59171302 437.79855365 33.31514012 421.5285934 43.5625 405.9375 C58.54409129 383.10695257 71.51902111 360.23890125 66.62939453 331.84814453 C65.61997748 327.94807637 63.92609718 324.51865069 62 321 C61.43023438 319.87980469 60.86046875 318.75960938 60.2734375 317.60546875 C55.92662135 309.3357484 50.45902122 302.16030655 44.57421875 294.93945312 C25.10503065 270.95322014 7.52049353 247.40158799 10 215 C12.18855761 196.46445284 18.35924299 179.31967264 25 162 C27.13056745 156.36949694 29.14444109 150.72648563 31 145 C31.48146484 143.58267578 31.48146484 143.58267578 31.97265625 142.13671875 C39.71983089 118.4827977 40.980709 92.23352217 35 68 C34.73316406 66.7728125 34.46632813 65.545625 34.19140625 64.28125 C29.2153373 43.22694938 18.14072578 23.91410875 4.44018555 7.32519531 C2.41239955 4.86895112 1.01873369 3.05620107 0 0 Z " fill="#FAFCFB" transform="translate(633,326)"/>
<path d="M0 0 C2.98968915 1.56907134 5.98160822 3.13380985 8.97436523 4.69702148 C10.99165854 5.75231675 13.00689468 6.81155641 15.01977539 7.87524414 C37.94364878 19.93783659 58.34894202 23.56417283 84 23 C84.02495763 27.65901308 84.04298042 32.31798614 84.05493164 36.97705078 C84.05992073 38.55778686 84.06671438 40.13851841 84.07543945 41.71923828 C84.1211381 50.21918732 84.07516124 58.55109515 83 67 C82.67 67 82.34 67 82 67 C82 65.35 82 63.7 82 62 C81.42781738 62.02094727 80.85563477 62.04189453 80.26611328 62.06347656 C70.24569041 62.37955299 60.39364694 62.56751054 50.5625 60.375 C49.59304443 60.16472168 49.59304443 60.16472168 48.60400391 59.95019531 C34.31635515 56.41095574 21.24182605 49.24247747 8.3125 42.4375 C-13.64419616 30.90940492 -32.08259085 24.733609 -57 24 C-57.34611328 23.16359985 -57.34611328 23.16359985 -57.69921875 22.31030273 C-61.93383137 12.12651966 -66.20506375 2.07088684 -71.61132812 -7.55493164 C-74 -11.8236446 -74 -11.8236446 -74 -14 C-48.46107938 -20.59068919 -22.45719807 -11.93154263 0 0 Z " fill="#FBFCFC" transform="translate(890,476)"/>
<path d="M0 0 C-1.4751549 3.82806234 -3.16748645 7.4984067 -4.96875 11.18359375 C-5.53980469 12.35857422 -6.11085937 13.53355469 -6.69921875 14.74414062 C-7.59961036 16.59227414 -8.50114095 18.43983147 -9.40478516 20.28637695 C-10.28353304 22.08385933 -11.1574411 23.88370521 -12.03125 25.68359375 C-12.55267578 26.75150146 -13.07410156 27.81940918 -13.61132812 28.91967773 C-14.9565341 31.90358487 -16.02401102 34.87806402 -17 38 C-17.61818604 38.0093457 -18.23637207 38.01869141 -18.87329102 38.02832031 C-34.62050894 38.3264579 -47.844235 39.72170015 -62.42578125 46.1171875 C-63.11569153 46.41951294 -63.80560181 46.72183838 -64.51641846 47.0333252 C-71.56842212 50.17487013 -78.36064725 53.76584269 -85.17016602 57.39547729 C-97.7318366 64.06651474 -110.1947019 70.29698626 -124 74 C-124.69279053 74.1959375 -125.38558105 74.391875 -126.09936523 74.59375 C-132.43080023 76.21759523 -138.55576222 76.23173513 -145.0625 76.125 C-146.64708008 76.11146484 -146.64708008 76.11146484 -148.26367188 76.09765625 C-150.84269253 76.0743167 -153.4212199 76.04157775 -156 76 C-156 77.65 -156 79.3 -156 81 C-156.33 81 -156.66 81 -157 81 C-158.1734927 71.77838022 -158.11370415 62.65164679 -158.0625 53.375 C-158.05747395 51.78255349 -158.052913 50.19010545 -158.04882812 48.59765625 C-158.03791237 44.73173221 -158.02070895 40.86588347 -158 37 C-157.40799805 37.02094727 -156.81599609 37.04189453 -156.20605469 37.06347656 C-123.42820541 38.06133787 -99.26028876 27.10045838 -70.78125 12.00390625 C-66.57874089 9.79110733 -62.40893011 7.76243864 -58 6 C-57.13117188 5.649375 -56.26234375 5.29875 -55.3671875 4.9375 C-37.21758002 -1.88993855 -19.05475455 -3.9086676 0 0 Z " fill="#FBFCFC" transform="translate(208,462)"/>
<path d="M0 0 C23.58168551 -1.23572151 41.31483681 7.65607878 61.35400391 19.14550781 C67.3094101 22.54155774 73.29675761 25.76673135 79.5 28.6875 C80.16306152 29.00195068 80.82612305 29.31640137 81.50927734 29.64038086 C92.08024633 34.49595207 102.08389583 35.15988147 113.5 35.0625 C115.01980469 35.05573242 115.01980469 35.05573242 116.5703125 35.04882812 C119.04693827 35.03714593 121.52343657 35.02076582 124 35 C122.87190866 46.46671667 121.30724294 57.7098912 119 69 C101.87763676 74.44199142 83.1417583 66.88215569 68.07568359 59.11181641 C61.64118224 55.66524864 55.43480318 51.79935256 49.26416016 47.90429688 C35.72774064 39.40208297 21.82865809 35.68069745 6 34 C5.81824219 32.91203125 5.63648438 31.8240625 5.44921875 30.703125 C4.11737352 22.87462627 2.68457639 15.17540244 0.55078125 7.515625 C-0.0147555 4.9326061 -0.09953967 2.63543139 0 0 Z " fill="#FBFCFC" transform="translate(846,535)"/>
<path d="M0 0 C0.75410156 0.00322266 1.50820312 0.00644531 2.28515625 0.00976562 C3.06246094 0.01814453 3.83976562 0.02652344 4.640625 0.03515625 C5.43339844 0.03966797 6.22617188 0.04417969 7.04296875 0.04882812 C8.99222008 0.0605706 10.94143238 0.07850479 12.890625 0.09765625 C12.46706595 5.18036485 11.75251035 9.91261695 10.453125 14.84765625 C8.78240553 21.20294209 7.78242665 27.5927501 6.890625 34.09765625 C5.95863281 34.195625 5.02664062 34.29359375 4.06640625 34.39453125 C-16.13145365 36.76354212 -31.93312483 44.98111747 -49.22827148 55.15258789 C-55.68623887 58.92354291 -62.20762953 62.1979301 -69.109375 65.09765625 C-69.82996094 65.4121875 -70.55054688 65.72671875 -71.29296875 66.05078125 C-81.37893039 70.19069307 -95.59906528 72.60109282 -106.109375 69.09765625 C-106.82563782 64.89913694 -107.53759204 60.69991637 -108.24560547 56.5 C-108.48694182 55.07206626 -108.72944348 53.64432894 -108.97314453 52.21679688 C-109.3237248 50.16196723 -109.67007448 48.10646194 -110.015625 46.05078125 C-110.32983398 44.19694824 -110.32983398 44.19694824 -110.65039062 42.30566406 C-111.109375 39.09765625 -111.109375 39.09765625 -111.109375 35.09765625 C-110.21182495 35.12122192 -110.21182495 35.12122192 -109.29614258 35.14526367 C-84.6492716 35.70622674 -66.62349021 29.48022609 -45.46386719 17.43408203 C-33.2918156 10.52514275 -21.70865779 4.64171177 -8.109375 1.09765625 C-7.14680786 0.82719482 -7.14680786 0.82719482 -6.16479492 0.55126953 C-4.03904036 0.08213401 -2.17388526 -0.01646883 0 0 Z " fill="#FBFDFC" transform="translate(165.109375,534.90234375)"/>
<path d="M0 0 C22.18852397 0 37.10867661 9.07698665 55.27124023 20.79614258 C68.99913096 29.57619192 80.79501589 33.13512725 97 34 C95.6393319 40.75523606 93.71290027 47.08575595 91.375 53.5625 C91.05015625 54.47580078 90.7253125 55.38910156 90.390625 56.33007812 C89.59846371 58.55511941 88.8015341 60.77832175 88 63 C68.1548018 64.16927518 54.91535074 55.36530381 39.1875 44.75 C26.79591172 36.40231623 15.00264209 31.66696023 0 30 C0 20.1 0 10.2 0 0 Z " fill="#FBFCFC" transform="translate(858,608)"/>
<path d="M0 0 C0 9.9 0 19.8 0 30 C-3.34125 30.3403125 -3.34125 30.3403125 -6.75 30.6875 C-20.48744927 32.38359199 -32.00556323 39.18051354 -43.265625 46.90625 C-67.04153334 63.20958467 -67.04153334 63.20958467 -81.75 63.0625 C-82.92046875 63.05347656 -84.0909375 63.04445313 -85.296875 63.03515625 C-86.18890625 63.02355469 -87.0809375 63.01195312 -88 63 C-89.50752893 58.73178646 -91.00472959 54.46002191 -92.5 50.1875 C-92.92925781 48.97255859 -93.35851562 47.75761719 -93.80078125 46.50585938 C-94.20683594 45.34248047 -94.61289063 44.17910156 -95.03125 42.98046875 C-95.59682617 41.37014771 -95.59682617 41.37014771 -96.17382812 39.72729492 C-97 37 -97 37 -97 34 C-95.87464844 33.92523437 -94.74929687 33.85046875 -93.58984375 33.7734375 C-76.50442914 32.40990079 -64.16705435 26.54881335 -49.98632812 17.2890625 C-33.63058827 6.67471805 -20.00956804 0 0 0 Z " fill="#FBFDFC" transform="translate(166,608)"/>
<path d="M0 0 C1.53036509 3.06073018 0.50166126 5.65446175 0 9 C-1.18157762 30.88190853 6.2739614 48.42390284 19 66 C19.47066895 66.6501709 19.94133789 67.3003418 20.42626953 67.97021484 C22.59157233 70.96006932 24.75904185 73.94835118 26.92700195 76.9362793 C54 114.37233452 54 114.37233452 54 133 C52.28759766 134.45800781 52.28759766 134.45800781 49.9140625 135.953125 C48.64175781 136.7575 48.64175781 136.7575 47.34375 137.578125 C46.4465625 138.12984375 45.549375 138.6815625 44.625 139.25 C43.73554687 139.8171875 42.84609375 140.384375 41.9296875 140.96875 C37.00165789 144.04503515 37.00165789 144.04503515 35 145 C34.34 144.67 33.68 144.34 33 144 C33.03738281 142.82824219 33.07476563 141.65648437 33.11328125 140.44921875 C33.06723421 121.37318652 19.25866427 102.28796448 9.35473633 86.88574219 C-2.68028427 68.09342594 -14.81889155 45.71560275 -10.3515625 22.65234375 C-8.02339259 14.46395128 -4.26427486 7.31874141 0 0 Z " fill="#F8FBFA" transform="translate(713,765)"/>
<path d="M0 0 C3.31567148 2.72757073 4.81481435 6.37265929 6.5625 10.1875 C6.86607422 10.82236328 7.16964844 11.45722656 7.48242188 12.11132812 C14.64446731 27.54327353 12.56010911 42.4744907 7 58 C2.55179573 69.87798444 -4.2208044 80.40286075 -10.91625977 91.11621094 C-27.17396587 116.20168892 -27.17396587 116.20168892 -32 145 C-37.11575056 143.29816715 -41.35015815 140.32246469 -45.8125 137.375 C-46.60076172 136.859375 -47.38902344 136.34375 -48.20117188 135.8125 C-50.1367352 134.54558583 -52.06953942 133.27467036 -54 132 C-50.25504658 113.47233573 -42.01587076 99.17632594 -31 84 C-30.19973389 82.89688477 -30.19973389 82.89688477 -29.38330078 81.77148438 C-28.27246769 80.2415984 -27.16138199 78.7118958 -26.05004883 77.18237305 C-8.32127511 52.76105831 4.45815169 31.20706183 0 0 Z " fill="#F7FAF9" transform="translate(310,765)"/>
<path d="M0 0 C19.95387206 -0.94023481 34.48723914 7.46715424 49.40429688 19.71484375 C57.73128989 26.42128366 65.4655748 31.01016413 76 33 C72.85423558 41.79572289 68.48445738 49.83654603 64 58 C52.37131767 56.56497112 44.99036817 51.14340789 36.57421875 43.30859375 C24.10440033 32.12549407 12.65950637 27.03950943 -4 26 C-3.38641858 17.19828026 -1.70450615 8.64045258 0 0 Z " fill="#F9FBFB" transform="translate(854,675)"/>
<path d="M0 0 C0.67429967 3.39436356 1.3380828 6.79070193 2 10.1875 C2.19078125 11.14720703 2.3815625 12.10691406 2.578125 13.09570312 C2.75859375 14.02705078 2.9390625 14.95839844 3.125 15.91796875 C3.29257813 16.77156982 3.46015625 17.6251709 3.6328125 18.50463867 C4.00595229 21.04045103 4.06412996 23.44081397 4 26 C3.18917969 26.02578125 2.37835938 26.0515625 1.54296875 26.078125 C-14.91865717 26.92132819 -25.0041625 33.60209158 -37.125 44.125 C-45.83622305 51.66562715 -52.51334133 55.64523497 -64 58 C-65.6326083 54.96235911 -67.25469108 51.91921677 -68.875 48.875 C-69.33519531 48.0190625 -69.79539062 47.163125 -70.26953125 46.28125 C-72.57975593 41.92865278 -74.64116434 37.76373422 -76 33 C-75.40574219 32.85304688 -74.81148438 32.70609375 -74.19921875 32.5546875 C-63.8608246 29.75705052 -55.83902593 24.85659132 -47.625 18.125 C-32.91018873 6.07681825 -19.52744872 -1.05395525 0 0 Z " fill="#F9FBFB" transform="translate(170,675)"/>
<path d="M0 0 C2.86679674 1.35086333 5.36480222 2.88617524 7.9140625 4.765625 C8.6663916 5.31919678 9.4187207 5.87276855 10.19384766 6.44311523 C10.99612793 7.03938721 11.7984082 7.63565918 12.625 8.25 C13.45950684 8.8675415 14.29401367 9.48508301 15.15380859 10.12133789 C23.15830744 16.07013932 31.04656595 22.1662231 38.87597656 28.34326172 C40.4131584 29.54226355 41.96380625 30.72406737 43.52246094 31.89501953 C44.3477832 32.51876465 45.17310547 33.14250977 46.0234375 33.78515625 C46.78317871 34.35242432 47.54291992 34.91969238 48.32568359 35.50415039 C48.87820801 35.99778076 49.43073242 36.49141113 50 37 C50 37.66 50 38.32 50 39 C43.71793713 39.24422707 37.71954612 38.87978173 31.4921875 38.0078125 C21.82532849 36.77784878 12.21352995 36.69677213 2.48022461 36.73925781 C-0.4307137 36.74997501 -3.34103339 36.7392964 -6.25195312 36.7265625 C-16.67424772 36.7199486 -26.83797587 37.20242593 -37.17211914 38.57128906 C-40.85523961 38.98378728 -44.30376886 39.07584482 -48 39 C-46.62785905 35.80207501 -45.18745769 34.07083142 -42.4296875 31.96875 C-41.70604004 31.41147217 -40.98239258 30.85419434 -40.23681641 30.2800293 C-39.06771729 29.39891479 -39.06771729 29.39891479 -37.875 28.5 C-37.0711084 27.88487549 -36.2672168 27.26975098 -35.43896484 26.63598633 C-32.96609461 24.74818233 -30.48456602 22.87237611 -28 21 C-27.26716797 20.44618652 -26.53433594 19.89237305 -25.77929688 19.32177734 C-21.81277758 16.32666929 -17.834551 13.3476472 -13.84863281 10.37841797 C-10.89419602 8.17546629 -7.94730695 5.96247583 -5 3.75 C-3.33333333 2.5 -1.66666667 1.25 0 0 Z " fill="#077447" transform="translate(511,211)"/>
<path d="M0 0 C0.85078125 0.0707373 1.7015625 0.14147461 2.578125 0.21435547 C12.52765568 0.96718565 22.42149551 1.15479436 32.39746094 1.13037109 C34.99680408 1.1250066 37.59597452 1.13035502 40.1953125 1.13671875 C50.17463508 1.14026758 60.05282697 0.82704715 70 0 C70 4.34848268 69.89542802 4.61211735 67.11328125 7.53125 C66.50419922 8.17707031 65.89511719 8.82289063 65.26757812 9.48828125 C64.62240234 10.15214844 63.97722656 10.81601562 63.3125 11.5 C62.68666016 12.16386719 62.06082031 12.82773437 61.41601562 13.51171875 C53.25421034 22.0752045 45.58435445 27.06056387 33.4375 27.5625 C20.80307709 27.02676475 13.6116421 19.43964774 5.47412109 10.62158203 C4.98766113 10.08645996 4.50120117 9.55133789 4 9 C3.24130615 8.18764893 3.24130615 8.18764893 2.46728516 7.35888672 C1.05078125 5.77734375 1.05078125 5.77734375 -1 3 C-0.67 2.01 -0.34 1.02 0 0 Z " fill="#077447" transform="translate(477,479)"/>
<path d="M0 0 C1.50519387 2.62214328 3.00431319 5.24744208 4.5 7.875 C4.92925781 8.62136719 5.35851562 9.36773438 5.80078125 10.13671875 C6.20683594 10.85214844 6.61289063 11.56757812 7.03125 12.3046875 C7.59682617 13.2944458 7.59682617 13.2944458 8.17382812 14.30419922 C9 16 9 16 9 18 C8.41734375 18.16113281 7.8346875 18.32226562 7.234375 18.48828125 C-5.32960044 22.65651838 -13.69974927 33.40520118 -21.8203125 43.34765625 C-24 46 -24 46 -26 48 C-28.37458753 45.60268701 -30.7207237 43.17934032 -33.0625 40.75 C-33.73861328 40.06808594 -34.41472656 39.38617187 -35.11132812 38.68359375 C-35.74619141 38.01972656 -36.38105469 37.35585938 -37.03515625 36.671875 C-37.6269165 36.0644043 -38.21867676 35.45693359 -38.82836914 34.83105469 C-40 33 -40 33 -39.86303711 30.98242188 C-38.89559208 28.76017191 -37.81648412 27.37273559 -36.15625 25.609375 C-35.57375488 24.98595215 -34.99125977 24.3625293 -34.39111328 23.72021484 C-33.7670459 23.07004395 -33.14297852 22.41987305 -32.5 21.75 C-31.86433105 21.08049316 -31.22866211 20.41098633 -30.57373047 19.72119141 C-11.39117342 -0.30786955 -11.39117342 -0.30786955 0 0 Z " fill="#F8FBFA" transform="translate(205,785)"/>
<path d="M0 0 C5.39366546 0.45801722 9.2325235 1.84464408 13.6875 4.8125 C14.58770874 5.40321289 14.58770874 5.40321289 15.50610352 6.00585938 C25.23819237 12.64178243 33.1610694 21.46402634 40 31 C38.70396588 33.82868857 37.30810402 35.9701021 35.1796875 38.234375 C34.64472656 38.80800781 34.10976563 39.38164063 33.55859375 39.97265625 C33.00300781 40.55917969 32.44742188 41.14570312 31.875 41.75 C31.31167969 42.35199219 30.74835937 42.95398438 30.16796875 43.57421875 C28.78275854 45.05334151 27.3919271 46.52719641 26 48 C22.65432411 44.753585 19.67621488 41.42501121 16.8125 37.75 C9.35935381 28.60911658 2.11245371 22.20414123 -9 18 C-7.45614871 13.85967154 -5.48971062 10.06446947 -3.375 6.1875 C-3.05015625 5.59001953 -2.7253125 4.99253906 -2.390625 4.37695312 C-1.59620849 2.91662865 -0.79844624 1.45812509 0 0 Z " fill="#F8FBFA" transform="translate(819,785)"/>
<path d="M0 0 C0.99 0 1.98 0 3 0 C3 0.66 3 1.32 3 2 C3.57492187 2.26167969 4.14984375 2.52335938 4.7421875 2.79296875 C11.6998913 6.51257165 16.81335589 12.72018415 21.5625 18.875 C22.22499756 19.73218628 22.22499756 19.73218628 22.90087891 20.60668945 C26 24.73412727 26 24.73412727 26 27 C26.66 27.33 27.32 27.66 28 28 C26.2711195 29.41701589 24.54188254 30.83359686 22.8125 32.25 C21.84957031 33.03890625 20.88664063 33.8278125 19.89453125 34.640625 C17.27499477 36.77584772 14.64270803 38.89356361 12 41 C9.25491856 37.62799309 6.68867045 34.18063539 4.1875 30.625 C0.07978814 24.94624162 -4.14376447 19.90415702 -10 16 C-9.41689223 12.0822447 -7.50358166 9.87035663 -5 6.875 C-2.21840292 3.62130495 -2.21840292 3.62130495 0 0 Z " fill="#F7FAF9" transform="translate(790,831)"/>
<path d="M0 0 C3.34454959 1.26190061 4.67630554 2.96545927 6.859375 5.7734375 C7.55675781 6.64613281 8.25414062 7.51882813 8.97265625 8.41796875 C10.546875 10.9609375 10.546875 10.9609375 10.546875 14.9609375 C8.45703125 17.265625 8.45703125 17.265625 5.609375 19.8359375 C-0.71679908 25.7654992 -5.06324053 32.53607117 -9.453125 39.9609375 C-13.28978063 37.81874737 -16.40716272 35.36774401 -19.640625 32.3984375 C-20.93033203 31.22087891 -20.93033203 31.22087891 -22.24609375 30.01953125 C-23.6710039 28.69045577 -25.07529871 27.33876379 -26.453125 25.9609375 C-25.793125 25.9609375 -25.133125 25.9609375 -24.453125 25.9609375 C-24.13214844 24.93613281 -24.13214844 24.93613281 -23.8046875 23.890625 C-22.03853083 20.06225071 -19.59371958 17.23926802 -16.828125 14.0859375 C-16.29050537 13.46968506 -15.75288574 12.85343262 -15.19897461 12.21850586 C-4.34033689 -0.06911364 -4.34033689 -0.06911364 0 0 Z " fill="#F7FBF9" transform="translate(232.453125,832.0390625)"/>
<path d="M0 0 C4.77148878 2.92100756 8.97981166 6.21803513 12 11 C12 12.32 12 13.64 12 15 C10.48986328 14.566875 10.48986328 14.566875 8.94921875 14.125 C0.92507893 11.95607877 -6.73049773 10.59554711 -15.0625 10.5625 C-15.83440674 10.55283203 -16.60631348 10.54316406 -17.40161133 10.53320312 C-23.44101452 10.62198908 -29.56305425 11.56305425 -34 16 C-34.99 16 -35.98 16 -37 16 C-39.77941143 12.82352979 -41.29195861 10.13089157 -41.5625 5.9375 C-41 2 -41 2 -38.875 -0.875 C-27.93140908 -8.96374111 -11.19464659 -5.93938194 0 0 Z " fill="#F5F9F8" transform="translate(466,376)"/>
<path d="M0 0 C1.56640625 1.16796875 1.56640625 1.16796875 3.56640625 4.16796875 C4.33791163 10.89108703 4.33791163 10.89108703 2.4453125 14.0234375 C1.06640625 15.66796875 1.06640625 15.66796875 -1.43359375 18.16796875 C-1.9646875 17.89082031 -2.49578125 17.61367188 -3.04296875 17.328125 C-3.749375 16.96589844 -4.45578125 16.60367187 -5.18359375 16.23046875 C-5.8796875 15.87082031 -6.57578125 15.51117188 -7.29296875 15.140625 C-16.0930169 11.14206297 -28.12471137 12.735833 -37.43359375 14.16796875 C-39.10562386 14.82106715 -40.77311496 15.48603589 -42.43359375 16.16796875 C-43.42359375 16.16796875 -44.41359375 16.16796875 -45.43359375 16.16796875 C-46.26041147 9.31719338 -46.26041147 9.31719338 -44.19140625 6.44140625 C-33.01462334 -3.60224659 -13.55341361 -6.92258503 0 0 Z " fill="#F2F8F6" transform="translate(595.43359375,373.83203125)"/>
<path d="M0 0 C0.66 0.33 1.32 0.66 2 1 C3.8521563 1.09584979 5.70787153 1.12983606 7.5625 1.125 C8.55378906 1.12757813 9.54507813 1.13015625 10.56640625 1.1328125 C12.94812348 1.27438431 12.94812348 1.27438431 14 0 C20.32507778 -0.96883029 24.38558982 0.27058935 29.56640625 3.90625 C30.03949219 4.2671875 30.51257813 4.628125 31 5 C30.7121582 6.89355469 30.7121582 6.89355469 30 9 C27.3565329 10.3262965 24.97028013 11.3229999 22.1875 12.25 C21.4143042 12.51014893 20.6411084 12.77029785 19.84448242 13.03833008 C7.87058208 16.83990363 -1.68598569 15.14273378 -13 10 C-15 8 -15 8 -15.0625 6.125 C-12.14697595 0.2939519 -5.87624484 -0.57610244 0 0 Z " fill="#0B764A" transform="translate(504,448)"/>
<path d="M0 0 C0 4.17602959 -1.58535629 5.08657694 -4.4375 8.125 C-4.93886475 8.6597998 -5.44022949 9.19459961 -5.95678711 9.74560547 C-15.26777608 19.56456252 -24.95454561 29.03634716 -34.55493164 38.57080078 C-36.37324408 40.37731189 -38.18929034 42.18587891 -40 44 C-40.66 43.67 -41.32 43.34 -42 43 C-39.676147 40.32495378 -37.33864298 37.66211883 -35 35 C-34.07380859 33.93072266 -34.07380859 33.93072266 -33.12890625 32.83984375 C-28.10056016 27.12536856 -22.80922757 21.70341646 -17.4375 16.3125 C-16.72932129 15.599729 -16.02114258 14.88695801 -15.29150391 14.15258789 C-11.17616791 10.04916797 -6.95755243 6.12616389 -2.55102539 2.33666992 C-1.67750223 1.58386978 -0.81539891 0.81539891 0 0 Z " fill="#3C906E" transform="translate(206,165)"/>
<path d="M0 0 C-1.28519565 2.86697492 -2.57129254 4.97607712 -5 7 C-5.66 7 -6.32 7 -7 7 C-8.9402306 8.79456764 -10.78942166 10.60385689 -12.625 12.5 C-13.140625 13.02464844 -13.65625 13.54929687 -14.1875 14.08984375 C-15.46284932 15.38881065 -16.73201261 16.69384577 -18 18 C-18.66 17.67 -19.32 17.34 -20 17 C-17.56661391 14.53756523 -15.12759787 12.08078261 -12.6875 9.625 C-11.65206055 8.57699219 -11.65206055 8.57699219 -10.59570312 7.5078125 C-9.92861328 6.8375 -9.26152344 6.1671875 -8.57421875 5.4765625 C-7.96151123 4.85861816 -7.34880371 4.24067383 -6.7175293 3.60400391 C-2.85844749 0 -2.85844749 0 0 0 Z " fill="#DBEAE4" transform="translate(350,346)"/>
<path d="M0 0 C1.22972123 2.45944247 0.9675924 3.63889056 0.66015625 6.3515625 C0.56669922 7.20234375 0.47324219 8.053125 0.37695312 8.9296875 C0.22129883 10.26386719 0.22129883 10.26386719 0.0625 11.625 C-0.08735352 12.97078125 -0.08735352 12.97078125 -0.24023438 14.34375 C-0.48814703 16.56315849 -0.74161994 18.78178977 -1 21 C-1.33 21 -1.66 21 -2 21 C-2.33 17.37 -2.66 13.74 -3 10 C-3.99 10.495 -3.99 10.495 -5 11 C-3.77472971 6.94718288 -2.30119506 3.55639236 0 0 Z " fill="#B5D5C8" transform="translate(713,765)"/>
<path d="M0 0 C0.66 0.33 1.32 0.66 2 1 C-2.95 5.95 -7.9 10.9 -13 16 C-13.66 15.67 -14.32 15.34 -15 15 C-10.39863498 9.46398272 -5.53601728 4.60136502 0 0 Z " fill="#DEEDE7" transform="translate(862,281)"/>
<path d="M0 0 C0.66 0.33 1.32 0.66 2 1 C-1.96 4.96 -5.92 8.92 -10 13 C-10.33 12.01 -10.66 11.02 -11 10 C-5.555 5.05 -5.555 5.05 0 0 Z " fill="#2B8661" transform="translate(563,169)"/>
<path d="M0 0 C0 0.33 0 0.66 0 1 C-1.5778125 1.0928125 -1.5778125 1.0928125 -3.1875 1.1875 C-8.77781182 2.37887793 -10.92212649 5.38318974 -14 10 C-13.7090874 6.60601966 -12.97716583 4.96886249 -10.9375 2.1875 C-6.95894672 -0.77525245 -4.85711724 -0.4116201 0 0 Z " fill="#CAE1D7" transform="translate(476,561)"/>
<path d="M0 0 C0.66 0.33 1.32 0.66 2 1 C1.195625 1.680625 0.39125 2.36125 -0.4375 3.0625 C-3.42288711 6.48477302 -3.73781251 8.5428126 -4 13 C-4.33 13 -4.66 13 -5 13 C-5.61538462 5.73846154 -5.61538462 5.73846154 -2.5 2 C-1.675 1.34 -0.85 0.68 0 0 Z " fill="#CBE1D8" transform="translate(430,373)"/>
<path d="M0 0 C0.33 0 0.66 0 1 0 C1 2.64 1 5.28 1 8 C-4.75 7.25 -4.75 7.25 -7 5 C-5.02 5 -3.04 5 -1 5 C-0.67 3.35 -0.34 1.7 0 0 Z " fill="#4B9879" transform="translate(303,915)"/>
</svg>
